<svg width="66" height="64" viewBox="0 0 66 64" fill="none" xmlns="http://www.w3.org/2000/svg">
<path d="M17.5557 40.2112L30.1166 27.6768M17.5557 40.2112L6.13833 37.3626L1 41.9204L15.3808 49.3267M17.5557 40.2112L15.3808 49.3267M37.5392 34.1417L52.3833 58.4422L56.9507 54.4542L52.3833 19.5535M37.5392 34.1417L52.3833 19.5535M37.5392 34.1417L26.146 45.3387M52.3833 19.5535L62.0879 10.0161C63.6104 7.73719 66.1986 2.83761 64.3716 1.47028C62.5447 0.102957 57.1399 2.04 54.6659 3.17944L42.6776 15.1424M42.6776 15.1424L11.8476 7.73719L7.85111 12.2949L30.1166 27.6768M42.6776 15.1424L30.1166 27.6768M15.3808 49.3267L14.7011 52.1753L17.5557 50.6673M17.5557 50.6673L24.4068 47.0478L26.146 45.3387M17.5557 50.6673L22.1242 63L26.6916 60.7211L26.146 45.3387" stroke="#071C35"/>
</svg>
