<svg width="86" height="102" viewBox="0 0 86 102" fill="none" xmlns="http://www.w3.org/2000/svg">
<path d="M35.7059 85.7059C25.1176 83.9412 3.35294 74.0588 1 48.6471M49.8235 85.7059C60.4118 83.9412 82.1765 74.0588 84.5294 48.6471M1 38.6471C2.76471 26.098 13.5882 1 42.7647 1C71.9412 1 83.1569 26.098 85.1176 38.6471M42.7647 61C39.9412 61 38.8431 62.9608 38.6471 63.9412V97.4706C38.6471 100.294 41.3922 101 42.7647 101C46.0588 101 47.2745 98.6471 47.4706 97.4706V63.9412C47.0784 62.9608 45.5882 61 42.7647 61ZM42.7647 61V22.1765M46.2941 56.8824C49.2353 58.0588 57 62.6471 64.5294 71.5882M46.2941 51.5882C50.4118 51.9804 60.7647 55.1176 69.2353 64.5294M46.2941 46.8824C52.5686 46.8824 67 49 74.5294 57.4706M46.2941 43.3529C52.3725 41.1961 66.8823 39.5882 76.2941 50.4118M46.2941 38.6471C51.5882 35.7059 64.7647 31.5882 75.1176 38.6471M46.2941 33.9412C48.8431 31.9804 56.8823 28.0588 68.6471 28.0588M46.2941 28.0588C47.6667 26.2941 51.9412 22.1765 58.0588 19.8235M46.2941 22.1765C46.8824 21 48.8824 18.1765 52.1765 16.2941M40.4118 56.8824C37.8627 57.8627 30.6471 62.1765 22.1765 71.5882M40.4118 51.5882C35.7059 52.1765 24.4118 55.5882 16.8824 64.5294M40.4118 46.8824C33.7451 46.6863 18.5294 48.5294 11 57.4706M40.4118 43.3529C34.3333 41.1961 19.4706 39.5882 8.64706 50.4118M40.4118 38.6471C34.5294 35.902 20.4118 32.0588 11 38.6471M40.4118 33.9412C36.6863 31.5882 26.7647 27.1176 16.8824 28.0588M40.4118 28.0588C37.4706 25.7059 30.7647 20.7647 27.4706 19.8235M40.4118 22.1765C39.2353 20.6078 36.2941 17.2353 33.9412 16.2941M42.7647 64.5294V97.4706" stroke="#071C35" stroke-width="1.17647"/>
</svg>
