<svg width="40" height="101" viewBox="0 0 40 101" fill="none" xmlns="http://www.w3.org/2000/svg">
<path d="M25.8485 100H34.3333C37.7273 91.7576 38.5758 77.9798 38.5758 72.1212C38.5758 40.1212 18.7778 22.0202 8.87879 16.9697M25.8485 100C28.7576 93.2121 29.8889 78.5859 30.0909 72.1212C30.0909 49.3502 18.5945 33.0219 8.87879 24.1321M25.8485 100H8.87879M8.87879 24.1321C5.97542 21.4755 3.23105 19.4833 1 18.1818V39.3939M8.87879 24.1321V16.9697M8.87879 0V16.9697M8.87879 100H1V91.5152M8.87879 100V83.0303M8.87879 29.697V39.3939M8.87879 39.3939H1M8.87879 39.3939V62.4242M1 39.3939V50.9091M8.87879 62.4242H1M8.87879 62.4242V83.0303M1 62.4242V72.7273M1 62.4242V50.9091M8.87879 83.0303H1M1 83.0303V91.5152M1 83.0303V72.7273M1 91.5152H5.24242M1 72.7273H5.24242M1 50.9091H5.24242M13.7273 35.7576V96.3636H21.6061C23.0202 93.7374 25.8485 85.2121 25.8485 72.1212C25.8485 55.7576 18.5758 41.8182 13.7273 35.7576Z" stroke="#071C35" stroke-width="1.17647"/>
</svg>
